<svg width="70" height="14" viewBox="0 0 70 14" fill="none" xmlns="http://www.w3.org/2000/svg">
<path d="M6.38705 0.766001C6.44012 0.647837 6.52622 0.547531 6.63498 0.477159C6.74373 0.406786 6.87051 0.369347 7.00005 0.369347C7.12958 0.369347 7.25636 0.406786 7.36512 0.477159C7.47387 0.547531 7.55997 0.647837 7.61305 0.766001L9.07004 3.83L12.31 4.33C12.87 4.418 13.093 5.136 12.688 5.55L10.35 7.947L10.895 11.322C10.989 11.905 10.405 12.349 9.90304 12.075L7.00005 10.49L4.09705 12.075C3.59605 12.349 3.01105 11.905 3.10505 11.322L3.65005 7.947L1.31205 5.55C0.907045 5.136 1.13105 4.418 1.69005 4.33L4.93004 3.83L6.38605 0.767001L6.38705 0.766001ZM20.387 0.766001C20.4401 0.647837 20.5262 0.547531 20.635 0.477159C20.7437 0.406786 20.8705 0.369347 21 0.369347C21.1296 0.369347 21.2564 0.406786 21.3651 0.477159C21.4739 0.547531 21.56 0.647837 21.613 0.766001L23.07 3.83L26.31 4.33C26.87 4.418 27.093 5.136 26.688 5.55L24.35 7.947L24.895 11.322C24.988 11.905 24.405 12.349 23.903 12.075L21 10.49L18.097 12.075C17.596 12.349 17.012 11.905 17.105 11.322L17.65 7.947L15.312 5.551C14.907 5.137 15.131 4.419 15.69 4.331L18.93 3.831L20.387 0.767001V0.766001ZM34.387 0.766001C34.4401 0.647837 34.5262 0.547531 34.635 0.477159C34.7437 0.406786 34.8705 0.369347 35 0.369347C35.1296 0.369347 35.2564 0.406786 35.3651 0.477159C35.4739 0.547531 35.56 0.647837 35.613 0.766001L37.07 3.83L40.31 4.33C40.87 4.418 41.093 5.136 40.688 5.55L38.35 7.947L38.895 11.322C38.988 11.905 38.405 12.349 37.903 12.075L35 10.49L32.097 12.075C31.596 12.349 31.012 11.905 31.105 11.322L31.65 7.947L29.312 5.551C28.907 5.137 29.131 4.419 29.69 4.331L32.93 3.831L34.386 0.767001L34.387 0.766001ZM48.387 0.766001C48.4401 0.647837 48.5262 0.547531 48.635 0.477159C48.7437 0.406786 48.8705 0.369347 49 0.369347C49.1296 0.369347 49.2564 0.406786 49.3651 0.477159C49.4739 0.547531 49.56 0.647837 49.613 0.766001L51.07 3.83L54.31 4.33C54.87 4.418 55.093 5.136 54.688 5.55L52.35 7.947L52.895 11.322C52.988 11.905 52.405 12.349 51.903 12.075L49 10.49L46.097 12.075C45.596 12.349 45.011 11.905 45.105 11.322L45.65 7.947L43.312 5.551C42.907 5.137 43.131 4.419 43.69 4.331L46.93 3.831L48.386 0.767001L48.387 0.766001ZM62.387 0.766001C62.4401 0.647837 62.5262 0.547531 62.635 0.477159C62.7437 0.406786 62.8705 0.369347 63 0.369347C63.1296 0.369347 63.2564 0.406786 63.3651 0.477159C63.4739 0.547531 63.56 0.647837 63.613 0.766001L65.07 3.83L68.31 4.33C68.87 4.418 69.093 5.136 68.688 5.55L66.35 7.947L66.895 11.322C66.989 11.905 66.405 12.349 65.903 12.075L63 10.49L60.097 12.075C59.596 12.349 59.011 11.905 59.105 11.322L59.65 7.947L57.312 5.551C56.907 5.137 57.131 4.419 57.69 4.331L60.93 3.831L62.386 0.767001L62.387 0.766001Z" fill="#E6E8ED"/>
</svg>
