<svg width="70" height="14" viewBox="0 0 70 14" fill="none" xmlns="http://www.w3.org/2000/svg">
<path d="M6.38705 0.765978C6.44012 0.647814 6.52622 0.547508 6.63498 0.477136C6.74373 0.406763 6.87051 0.369324 7.00005 0.369324C7.12958 0.369324 7.25636 0.406763 7.36512 0.477136C7.47387 0.547508 7.55997 0.647814 7.61305 0.765978L9.07004 3.82998L12.31 4.32998C12.87 4.41798 13.093 5.13598 12.688 5.54998L10.35 7.94698L10.895 11.322C10.989 11.905 10.405 12.349 9.90304 12.075L7.00005 10.49L4.09705 12.075C3.59605 12.349 3.01105 11.905 3.10505 11.322L3.65005 7.94698L1.31205 5.54998C0.907045 5.13598 1.13105 4.41798 1.69005 4.32998L4.93004 3.82998L6.38605 0.766979L6.38705 0.765978ZM20.387 0.765978C20.4401 0.647814 20.5262 0.547508 20.635 0.477136C20.7437 0.406763 20.8705 0.369324 21 0.369324C21.1296 0.369324 21.2564 0.406763 21.3651 0.477136C21.4739 0.547508 21.56 0.647814 21.613 0.765978L23.07 3.82998L26.31 4.32998C26.87 4.41798 27.093 5.13598 26.688 5.54998L24.35 7.94698L24.895 11.322C24.988 11.905 24.405 12.349 23.903 12.075L21 10.49L18.097 12.075C17.596 12.349 17.012 11.905 17.105 11.322L17.65 7.94698L15.312 5.55098C14.907 5.13698 15.131 4.41898 15.69 4.33098L18.93 3.83098L20.387 0.766979V0.765978ZM34.387 0.765978C34.4401 0.647814 34.5262 0.547508 34.635 0.477136C34.7437 0.406763 34.8705 0.369324 35 0.369324C35.1296 0.369324 35.2564 0.406763 35.3651 0.477136C35.4739 0.547508 35.56 0.647814 35.613 0.765978L37.07 3.82998L40.31 4.32998C40.87 4.41798 41.093 5.13598 40.688 5.54998L38.35 7.94698L38.895 11.322C38.988 11.905 38.405 12.349 37.903 12.075L35 10.49L32.097 12.075C31.596 12.349 31.012 11.905 31.105 11.322L31.65 7.94698L29.312 5.55098C28.907 5.13698 29.131 4.41898 29.69 4.33098L32.93 3.83098L34.386 0.766979L34.387 0.765978ZM48.387 0.765978C48.4401 0.647814 48.5262 0.547508 48.635 0.477136C48.7437 0.406763 48.8705 0.369324 49 0.369324C49.1296 0.369324 49.2564 0.406763 49.3651 0.477136C49.4739 0.547508 49.56 0.647814 49.613 0.765978L51.07 3.82998L54.31 4.32998C54.87 4.41798 55.093 5.13598 54.688 5.54998L52.35 7.94698L52.895 11.322C52.988 11.905 52.405 12.349 51.903 12.075L49 10.49L46.097 12.075C45.596 12.349 45.011 11.905 45.105 11.322L45.65 7.94698L43.312 5.55098C42.907 5.13698 43.131 4.41898 43.69 4.33098L46.93 3.83098L48.386 0.766979L48.387 0.765978ZM62.387 0.765978C62.4401 0.647814 62.5262 0.547508 62.635 0.477136C62.7437 0.406763 62.8705 0.369324 63 0.369324C63.1296 0.369324 63.2564 0.406763 63.3651 0.477136C63.4739 0.547508 63.56 0.647814 63.613 0.765978L65.07 3.82998L68.31 4.32998C68.87 4.41798 69.093 5.13598 68.688 5.54998L66.35 7.94698L66.895 11.322C66.989 11.905 66.405 12.349 65.903 12.075L63 10.49L60.097 12.075C59.596 12.349 59.011 11.905 59.105 11.322L59.65 7.94698L57.312 5.55098C56.907 5.13698 57.131 4.41898 57.69 4.33098L60.93 3.83098L62.386 0.766979L62.387 0.765978Z" fill="#FC4C02"/>
</svg>
