<svg width="24" height="24" viewBox="0 0 24 24" fill="none" xmlns="http://www.w3.org/2000/svg">
<path d="M7.33813 17.7295H15.8791M10.5599 2.53077L3.31894 8.16264C2.83491 8.53911 2.59289 8.72734 2.41854 8.96307C2.26409 9.17189 2.14904 9.40713 2.07903 9.65724C2 9.93959 2 10.2462 2 10.8594V18.5836C2 19.7794 2 20.3774 2.23273 20.8341C2.43744 21.2359 2.76409 21.5626 3.16587 21.7673C3.62262 22 4.22055 22 5.41641 22H17.8009C18.9967 22 19.5947 22 20.0514 21.7673C20.4532 21.5626 20.7798 21.2359 20.9846 20.8341C21.2173 20.3774 21.2173 19.7794 21.2173 18.5836V10.8594C21.2173 10.2462 21.2173 9.93959 21.1382 9.65724C21.0682 9.40713 20.9532 9.17189 20.7987 8.96307C20.6244 8.72734 20.3824 8.53911 19.8983 8.16264L12.6574 2.53077C12.2823 2.23904 12.0947 2.09318 11.8877 2.03711C11.7049 1.98763 11.5123 1.98763 11.3296 2.03711C11.1225 2.09318 10.935 2.23904 10.5599 2.53077Z" stroke="#F85C00" stroke-width="1.5" stroke-linecap="round" stroke-linejoin="round"/>
</svg>
