<svg width="32" height="32" viewBox="0 0 32 32" fill="none" xmlns="http://www.w3.org/2000/svg">
<path d="M19.6643 11.5556C19.6643 12.7343 19.196 13.8648 18.3625 14.6983C17.529 15.5317 16.3986 16 15.2198 16C14.0411 16 12.9106 15.5317 12.0771 14.6983C11.2436 13.8648 10.7754 12.7343 10.7754 11.5556M5.92339 10.8904L5.14561 20.2238C4.97852 22.2288 4.89498 23.2313 5.23391 24.0047C5.53168 24.6841 6.04762 25.2448 6.70002 25.598C7.44256 26 8.44855 26 10.4605 26H19.9791C21.9911 26 22.9971 26 23.7396 25.598C24.392 25.2448 24.9079 24.6841 25.2057 24.0047C25.5446 23.2313 25.4611 22.2288 25.294 20.2238L24.5162 10.8904C24.3725 9.16528 24.3006 8.3027 23.9186 7.64984C23.5822 7.07493 23.0812 6.614 22.4804 6.3265C21.798 6 20.9325 6 19.2013 6H11.2383C9.5072 6 8.64161 6 7.95927 6.32649C7.35842 6.614 6.85748 7.07493 6.52106 7.64984C6.13903 8.3027 6.06715 9.16528 5.92339 10.8904Z" stroke="#4A4A4A" stroke-width="1.6" stroke-linecap="round" stroke-linejoin="round"/>
</svg>
